<mxfile host="app.diagrams.net" modified="2023-11-17T13:31:58.323Z" agent="Mozilla/5.0 (Windows NT 10.0; Win64; x64) AppleWebKit/537.36 (KHTML, like Gecko) Chrome/119.0.0.0 Safari/537.36" etag="SYUb0B-jtZvxjKGrMhpZ" version="22.1.3" type="github">
  <diagram name="Page-1" id="wk96M6JMmnmKSEEpTEt6">
    <mxGraphModel dx="877" dy="628" grid="1" gridSize="10" guides="1" tooltips="1" connect="1" arrows="1" fold="1" page="1" pageScale="1" pageWidth="827" pageHeight="1169" math="0" shadow="0">
      <root>
        <mxCell id="0" />
        <mxCell id="1" parent="0" />
        <mxCell id="EEnuVVRjJZSPXfPA_WAL-1" value="Client Request" style="rounded=1;whiteSpace=wrap;html=1;" vertex="1" parent="1">
          <mxGeometry x="90" y="90" width="90" height="50" as="geometry" />
        </mxCell>
        <mxCell id="EEnuVVRjJZSPXfPA_WAL-2" value="Service" style="rounded=1;whiteSpace=wrap;html=1;" vertex="1" parent="1">
          <mxGeometry x="230" y="90" width="80" height="50" as="geometry" />
        </mxCell>
        <mxCell id="EEnuVVRjJZSPXfPA_WAL-3" value="Cliend" style="rounded=1;whiteSpace=wrap;html=1;" vertex="1" parent="1">
          <mxGeometry x="347.18" y="90" width="86.5" height="50" as="geometry" />
        </mxCell>
        <mxCell id="EEnuVVRjJZSPXfPA_WAL-4" value="" style="rounded=0;whiteSpace=wrap;html=1;" vertex="1" parent="1">
          <mxGeometry x="40" y="180" width="550" height="70" as="geometry" />
        </mxCell>
        <mxCell id="EEnuVVRjJZSPXfPA_WAL-5" value="" style="shape=parallelogram;perimeter=parallelogramPerimeter;whiteSpace=wrap;html=1;fixedSize=1;" vertex="1" parent="1">
          <mxGeometry x="70" y="202.5" width="70" height="25" as="geometry" />
        </mxCell>
        <mxCell id="EEnuVVRjJZSPXfPA_WAL-6" value="" style="shape=parallelogram;perimeter=parallelogramPerimeter;whiteSpace=wrap;html=1;fixedSize=1;" vertex="1" parent="1">
          <mxGeometry x="180" y="202.5" width="70" height="25" as="geometry" />
        </mxCell>
        <mxCell id="EEnuVVRjJZSPXfPA_WAL-7" value="" style="shape=parallelogram;perimeter=parallelogramPerimeter;whiteSpace=wrap;html=1;fixedSize=1;" vertex="1" parent="1">
          <mxGeometry x="290" y="202.5" width="70" height="25" as="geometry" />
        </mxCell>
        <mxCell id="EEnuVVRjJZSPXfPA_WAL-8" value="" style="shape=parallelogram;perimeter=parallelogramPerimeter;whiteSpace=wrap;html=1;fixedSize=1;" vertex="1" parent="1">
          <mxGeometry x="400" y="202.5" width="70" height="25" as="geometry" />
        </mxCell>
        <mxCell id="EEnuVVRjJZSPXfPA_WAL-9" value="" style="shape=parallelogram;perimeter=parallelogramPerimeter;whiteSpace=wrap;html=1;fixedSize=1;" vertex="1" parent="1">
          <mxGeometry x="510" y="202.5" width="70" height="25" as="geometry" />
        </mxCell>
        <mxCell id="EEnuVVRjJZSPXfPA_WAL-10" value="" style="rounded=1;whiteSpace=wrap;html=1;" vertex="1" parent="1">
          <mxGeometry x="45.32" y="290" width="135" height="220" as="geometry" />
        </mxCell>
        <mxCell id="EEnuVVRjJZSPXfPA_WAL-11" value="" style="endArrow=classic;html=1;rounded=0;" edge="1" parent="1" target="EEnuVVRjJZSPXfPA_WAL-5">
          <mxGeometry width="50" height="50" relative="1" as="geometry">
            <mxPoint x="150" y="140" as="sourcePoint" />
            <mxPoint x="200" y="90" as="targetPoint" />
          </mxGeometry>
        </mxCell>
        <mxCell id="EEnuVVRjJZSPXfPA_WAL-12" value="" style="endArrow=classic;html=1;rounded=0;exitX=0.5;exitY=1;exitDx=0;exitDy=0;entryX=0.5;entryY=0;entryDx=0;entryDy=0;" edge="1" parent="1" source="EEnuVVRjJZSPXfPA_WAL-2" target="EEnuVVRjJZSPXfPA_WAL-6">
          <mxGeometry width="50" height="50" relative="1" as="geometry">
            <mxPoint x="270" y="220" as="sourcePoint" />
            <mxPoint x="320" y="170" as="targetPoint" />
          </mxGeometry>
        </mxCell>
        <mxCell id="EEnuVVRjJZSPXfPA_WAL-13" value="" style="endArrow=classic;html=1;rounded=0;exitX=0.5;exitY=1;exitDx=0;exitDy=0;entryX=0.5;entryY=0;entryDx=0;entryDy=0;" edge="1" parent="1" target="EEnuVVRjJZSPXfPA_WAL-8">
          <mxGeometry width="50" height="50" relative="1" as="geometry">
            <mxPoint x="395" y="139.5" as="sourcePoint" />
            <mxPoint x="340" y="202.5" as="targetPoint" />
          </mxGeometry>
        </mxCell>
        <mxCell id="EEnuVVRjJZSPXfPA_WAL-14" value="" style="rounded=1;whiteSpace=wrap;html=1;" vertex="1" parent="1">
          <mxGeometry x="54.06" y="305" width="117.5" height="110" as="geometry" />
        </mxCell>
        <mxCell id="EEnuVVRjJZSPXfPA_WAL-18" value="Database" style="shape=datastore;whiteSpace=wrap;html=1;" vertex="1" parent="1">
          <mxGeometry x="63" y="440" width="89.5" height="60" as="geometry" />
        </mxCell>
        <mxCell id="EEnuVVRjJZSPXfPA_WAL-20" value="Service" style="rounded=1;whiteSpace=wrap;html=1;" vertex="1" parent="1">
          <mxGeometry x="73.13" y="346.25" width="79.37" height="27.5" as="geometry" />
        </mxCell>
        <mxCell id="EEnuVVRjJZSPXfPA_WAL-21" value="Service" style="rounded=1;whiteSpace=wrap;html=1;" vertex="1" parent="1">
          <mxGeometry x="73.13" y="373.75" width="79.37" height="27.5" as="geometry" />
        </mxCell>
        <mxCell id="EEnuVVRjJZSPXfPA_WAL-32" value="" style="rounded=1;whiteSpace=wrap;html=1;" vertex="1" parent="1">
          <mxGeometry x="240" y="290" width="135" height="220" as="geometry" />
        </mxCell>
        <mxCell id="EEnuVVRjJZSPXfPA_WAL-33" value="" style="rounded=1;whiteSpace=wrap;html=1;" vertex="1" parent="1">
          <mxGeometry x="248.74" y="305" width="117.5" height="110" as="geometry" />
        </mxCell>
        <mxCell id="EEnuVVRjJZSPXfPA_WAL-34" value="Database" style="shape=datastore;whiteSpace=wrap;html=1;" vertex="1" parent="1">
          <mxGeometry x="257.68" y="440" width="89.5" height="60" as="geometry" />
        </mxCell>
        <mxCell id="EEnuVVRjJZSPXfPA_WAL-35" value="Service" style="rounded=1;whiteSpace=wrap;html=1;" vertex="1" parent="1">
          <mxGeometry x="267.81" y="346.25" width="79.37" height="27.5" as="geometry" />
        </mxCell>
        <mxCell id="EEnuVVRjJZSPXfPA_WAL-36" value="Service" style="rounded=1;whiteSpace=wrap;html=1;" vertex="1" parent="1">
          <mxGeometry x="267.81" y="373.75" width="79.37" height="27.5" as="geometry" />
        </mxCell>
        <mxCell id="EEnuVVRjJZSPXfPA_WAL-37" value="" style="rounded=1;whiteSpace=wrap;html=1;" vertex="1" parent="1">
          <mxGeometry x="436.5" y="290" width="135" height="220" as="geometry" />
        </mxCell>
        <mxCell id="EEnuVVRjJZSPXfPA_WAL-38" value="" style="rounded=1;whiteSpace=wrap;html=1;" vertex="1" parent="1">
          <mxGeometry x="445.24" y="305" width="117.5" height="110" as="geometry" />
        </mxCell>
        <mxCell id="EEnuVVRjJZSPXfPA_WAL-39" value="Database" style="shape=datastore;whiteSpace=wrap;html=1;" vertex="1" parent="1">
          <mxGeometry x="464.31" y="440" width="89.5" height="60" as="geometry" />
        </mxCell>
        <mxCell id="EEnuVVRjJZSPXfPA_WAL-40" value="Service" style="rounded=1;whiteSpace=wrap;html=1;" vertex="1" parent="1">
          <mxGeometry x="464.31" y="346.25" width="79.37" height="27.5" as="geometry" />
        </mxCell>
        <mxCell id="EEnuVVRjJZSPXfPA_WAL-41" value="Service" style="rounded=1;whiteSpace=wrap;html=1;" vertex="1" parent="1">
          <mxGeometry x="464.31" y="373.75" width="79.37" height="27.5" as="geometry" />
        </mxCell>
      </root>
    </mxGraphModel>
  </diagram>
</mxfile>
